<?xml version="1.0" encoding="utf-8"?>
<!-- Generator: Adobe Illustrator 24.2.0, SVG Export Plug-In . SVG Version: 6.00 Build 0)  -->
<svg version="1.1" id="Layer_1" xmlns="http://www.w3.org/2000/svg" xmlns:xlink="http://www.w3.org/1999/xlink" x="0px" y="0px"
	 viewBox="0 0 128 128" style="enable-background:new 0 0 128 128;" xml:space="preserve">
<style type="text/css">
	.st0{fill:#F2CD32;}
	.st1{fill:#F5BA35;}
	.st2{fill:#EDD529;}
	.st3{fill:#A7673B;}
	.st4{fill:#824A1F;}
</style>
<g>
	<g>
		<g>
			<path class="st0" d="M88.19,19.1c0,0,7.93,9.2,1.97,29.7c-5.96,20.5-47.44,50.1-74.28,57.22c0,0-4.48,3.85-0.42,9.05
				c4.06,5.2,33.16,11.08,58.3-0.89c25.15-11.97,50.12-40.91,39.47-68.86c-10.65-27.95-12.47-14.42-18.39-30.94L88.19,19.1z"/>
			<g>
				<path class="st0" d="M88.42,19.15c1.03,1.2,1.73,2.78,2.3,4.23c1.6,4.12,2.07,8.64,1.87,13.04c-0.15,3.43-0.71,6.84-1.55,10.17
					c-0.59,2.33-1.31,4.57-2.37,6.72c-2.14,4.34-5.12,8.24-8.31,11.86c-3.81,4.32-8.04,8.27-12.45,11.98
					c-4.84,4.06-9.92,7.82-15.18,11.3c-5.25,3.48-10.69,6.7-16.3,9.57c-5.06,2.59-10.28,4.92-15.67,6.73
					c-1.2,0.4-2.41,0.78-3.63,1.13c-0.34,0.1-0.79,0.14-1.07,0.34c-0.22,0.16-0.4,0.42-0.57,0.63c-1.72,2.16-1.87,4.92-0.46,7.3
					c0.81,1.37,1.92,2.2,3.32,2.91c1.64,0.83,3.41,1.41,5.18,1.9c5.07,1.4,10.38,1.98,15.62,2.11c6.6,0.16,13.24-0.47,19.68-1.93
					c6.89-1.56,13.48-4.14,19.63-7.61c5.78-3.26,11.18-7.21,16.06-11.71c4.95-4.55,9.39-9.69,12.96-15.39
					c3.4-5.43,6.03-11.4,7.26-17.71c1.23-6.26,0.99-12.75-0.86-18.87c-1.07-3.53-2.56-6.97-4.06-10.33
					c-1.05-2.33-2.17-4.63-3.51-6.81c-1.4-2.28-3.07-4.21-5.14-5.9c-1.75-1.42-3.13-2.98-4.21-4.98c-0.94-1.76-1.68-3.62-2.35-5.5
					c0.16,0.07,0.33,0.13,0.49,0.2c-2.22,1.57-4.44,3.14-6.66,4.71c-0.11,0.08-0.56-0.18-0.47-0.24c2.22-1.57,4.44-3.14,6.66-4.71
					c0.1-0.07,0.45,0.09,0.49,0.2c1.1,3.05,2.34,6.33,4.62,8.72c1.4,1.47,3.12,2.56,4.48,4.08c2.88,3.21,4.77,7.31,6.48,11.22
					c1.48,3.37,2.96,6.82,3.95,10.37c0.85,3.06,1.32,6.23,1.38,9.41c0.13,6.37-1.35,12.69-3.88,18.52
					c-2.64,6.08-6.37,11.64-10.71,16.64c-4.42,5.1-9.5,9.64-15,13.55c-5.51,3.91-11.47,7.25-17.81,9.61
					c-6.55,2.44-13.45,3.9-20.41,4.47c-5.93,0.49-11.95,0.36-17.84-0.51c-4.1-0.6-8.34-1.49-12.09-3.34
					c-1.06-0.52-2.18-1.16-2.96-2.07c-1.86-2.19-2.4-5.18-0.9-7.7c0.29-0.48,0.71-1.19,1.2-1.5c0.35-0.22,0.93-0.27,1.33-0.39
					c0.6-0.17,1.2-0.35,1.8-0.54c2.6-0.82,5.15-1.77,7.67-2.81c5.58-2.31,10.99-5.05,16.23-8.06c5.58-3.2,10.99-6.72,16.19-10.51
					c5.01-3.66,9.85-7.59,14.37-11.84c4.01-3.78,7.82-7.83,11.05-12.3c2.71-3.75,4.86-7.75,6.05-12.24
					c1.59-5.98,2.37-12.32,1.38-18.46c-0.49-3.03-1.4-6.1-3.03-8.72c-0.22-0.35-0.44-0.7-0.71-1.01
					C87.86,18.93,88.34,19.05,88.42,19.15z"/>
			</g>
		</g>
		<g>
			<path class="st1" d="M93.23,15.55c-0.77,0.64-0.96,1.74-0.45,2.61c3,5.01,12.03,21.72,7.05,33.75
				c-5.87,14.2-12.94,42.88-79.82,56.36c-1.42,0.29-2.74,0.99-3.72,2.05c-1.22,1.32-2.04,3.26,0.17,5.47
				c4.07,4.09,30.49,11.16,61.99-3.92c31.38-15.02,39.09-45.62,37.56-57.69c-0.01-0.1-0.03-0.19-0.06-0.28
				c-0.57-2.05-7.27-25.84-15.94-31.05c-0.16-0.09-0.3-0.2-0.42-0.33c-0.62-0.65-2.45-2.78-3.08-5.82
				C96.21,15.2,94.41,14.58,93.23,15.55L93.23,15.55z"/>
			<g>
				<path class="st2" d="M93.46,15.7c-0.8,0.72-0.87,1.73-0.35,2.62c0.22,0.38,0.45,0.77,0.67,1.15c0.58,1.03,1.14,2.07,1.68,3.12
					c1.39,2.74,2.62,5.56,3.63,8.46c2.2,6.32,3.62,13.62,1.32,20.12c-0.87,2.46-1.91,4.88-2.9,7.29c-1.12,2.7-2.34,5.36-3.75,7.93
					c-1.67,3.04-3.6,5.94-5.77,8.64c-2.62,3.27-5.59,6.24-8.79,8.93c-3.97,3.33-8.31,6.21-12.83,8.73
					c-5.64,3.14-11.57,5.73-17.64,7.93c-7.71,2.8-15.63,4.98-23.63,6.76c-1.15,0.26-2.29,0.5-3.44,0.74
					c-1.02,0.21-2.06,0.37-3.01,0.8c-1.48,0.67-3.09,2.07-3.28,3.79c-0.23,2.03,1.56,3.45,3.17,4.28c3.66,1.89,7.92,2.73,11.96,3.28
					c6.49,0.87,13.11,0.76,19.6-0.09c8.55-1.11,16.92-3.53,24.82-6.97c7.18-3.12,13.9-7.17,19.74-12.41
					c4.85-4.34,9.04-9.4,12.41-14.97c2.86-4.74,5.15-9.84,6.72-15.15c1.22-4.13,2.06-8.43,2.15-12.75c0.03-1.43,0.08-3.01-0.3-4.39
					c-0.4-1.43-0.83-2.84-1.29-4.25c-1.68-5.25-3.63-10.45-6.09-15.39c-1.27-2.54-2.69-5.05-4.45-7.29
					c-0.75-0.96-1.58-1.88-2.51-2.67c-0.42-0.36-0.86-0.67-1.32-0.96c-0.46-0.29-0.81-0.68-1.15-1.1c-0.93-1.14-1.68-2.45-2.16-3.84
					c-0.27-0.78-0.29-1.82-0.95-2.4C95.06,15.1,94.1,15.17,93.46,15.7c-0.15,0.13-0.62-0.15-0.44-0.29c0.98-0.81,2.52-0.57,3.31,0.4
					c0.55,0.68,0.59,1.67,0.88,2.47c0.31,0.86,0.72,1.68,1.22,2.45c0.34,0.52,0.71,1.02,1.12,1.48c0.39,0.44,0.89,0.71,1.36,1.06
					c0.93,0.68,1.75,1.49,2.51,2.35c1.82,2.08,3.27,4.47,4.57,6.91c1.44,2.7,2.68,5.5,3.81,8.35c1.62,4.07,3.04,8.24,4.24,12.45
					c0.38,1.32,0.42,2.69,0.42,4.06c0,1.96-0.17,3.92-0.46,5.86c-0.72,4.88-2.13,9.66-4.04,14.21c-2.34,5.58-5.46,10.84-9.22,15.58
					c-4.38,5.5-9.63,10.28-15.49,14.15c-7.28,4.81-15.51,8.29-23.88,10.68c-7.44,2.13-15.16,3.33-22.9,3.39
					c-5.54,0.04-11.15-0.47-16.51-1.92c-1.76-0.47-3.5-1.05-5.15-1.84c-1.39-0.67-2.72-1.51-3.5-2.9c-0.76-1.35-0.5-2.81,0.43-4.01
					c1.23-1.57,2.94-2.24,4.84-2.63c4.46-0.91,8.91-1.94,13.31-3.12c7.4-1.98,14.71-4.37,21.75-7.39
					c5.57-2.39,10.98-5.17,16.04-8.51c4.01-2.64,7.8-5.63,11.22-9.02c2.8-2.77,5.33-5.81,7.53-9.08c1.82-2.71,3.41-5.56,4.8-8.52
					c1.17-2.47,2.19-5.01,3.19-7.56c0.49-1.25,1.03-2.48,1.48-3.74c1.19-3.32,1.36-6.93,0.98-10.41c-0.72-6.61-3.24-12.99-6.3-18.84
					c-0.5-0.96-1.03-1.92-1.57-2.86c-0.26-0.44-0.58-0.88-0.7-1.38c-0.19-0.8,0.11-1.58,0.71-2.12
					C93.16,15.28,93.63,15.55,93.46,15.7z"/>
			</g>
		</g>
	</g>
	<g>
		<g>
			<path class="st3" d="M84.57,15.33c1.32,2.13,3.21,4.99,4.14,5.52l6.74-3.93l0.17-5.84c0.07-2.46-2.63-4.01-4.72-2.7l-5.39,3.16
				C84.19,12.32,83.77,14.03,84.57,15.33z"/>
			<g>
				<path class="st3" d="M84.77,15.15c0.69,1.12,1.4,2.22,2.17,3.29c0.54,0.75,1.13,1.69,1.94,2.19c-0.07,0-0.14,0-0.21,0.01
					c2.24-1.31,4.49-2.62,6.74-3.93c-0.06,0.09-0.12,0.19-0.18,0.28c0.03-1.17,0.07-2.34,0.1-3.51c0.03-1.21,0.32-2.77-0.33-3.87
					c-0.52-0.89-1.51-1.46-2.54-1.46c-0.67,0-1.24,0.28-1.8,0.61c-1.23,0.72-2.45,1.44-3.68,2.16c-0.47,0.27-0.95,0.54-1.41,0.82
					C84.38,12.49,84.07,13.95,84.77,15.15c0.12,0.21-0.26,0.59-0.4,0.36c-0.86-1.47-0.34-3.29,1.09-4.18
					c0.69-0.42,1.39-0.82,2.09-1.23c0.99-0.58,1.98-1.16,2.97-1.74c0.97-0.57,1.98-0.92,3.1-0.54c1.38,0.46,2.23,1.75,2.21,3.19
					c-0.01,0.88-0.05,1.76-0.07,2.64c-0.03,1.03,0.02,2.08-0.09,3.1c-0.05,0.48-0.76,0.71-1.13,0.93c-1.93,1.13-3.86,2.25-5.79,3.38
					c-0.07,0.04-0.14,0.05-0.21,0.01c-0.79-0.48-1.38-1.4-1.91-2.13c-0.8-1.11-1.54-2.26-2.26-3.42
					C84.24,15.3,84.63,14.92,84.77,15.15z"/>
			</g>
		</g>
	</g>
	<g>
		<path class="st4" d="M16.3,106.56c1.49,1.66,3.41,5.05,1.47,9.06c-0.4,0.82-1.39,1.17-2.21,0.76c-2.28-1.13-6.07-4-1.83-9.5
			C14.36,106.06,15.61,105.79,16.3,106.56z"/>
		<g>
			<path class="st4" d="M16.55,106.49c1.29,1.44,2.18,3.29,2.29,5.23c0.1,1.76-0.42,5.26-2.85,4.96c-0.65-0.08-1.29-0.52-1.83-0.88
				c-0.59-0.4-1.13-0.87-1.58-1.42c-1.02-1.27-1.28-2.87-0.82-4.42c0.34-1.17,1.05-2.55,1.95-3.39c0.76-0.71,2.03-0.89,2.8-0.12
				c0.19,0.19-0.32,0.34-0.45,0.2c-1.74-1.75-3.58,2.44-3.87,3.72c-0.3,1.35,0,2.7,0.84,3.79c0.67,0.87,1.61,1.54,2.59,2.02
				c2.36,1.16,2.79-3.39,2.64-4.8c-0.2-1.79-1.05-3.44-2.23-4.77C15.9,106.47,16.42,106.33,16.55,106.49z"/>
		</g>
	</g>
</g>
</svg>
