<?xml version="1.0" encoding="utf-8"?>
<!-- Generator: Adobe Illustrator 24.2.1, SVG Export Plug-In . SVG Version: 6.00 Build 0)  -->
<svg version="1.1" xmlns="http://www.w3.org/2000/svg" xmlns:xlink="http://www.w3.org/1999/xlink" x="0px" y="0px"
	 viewBox="0 0 315 400" style="enable-background:new 0 0 315 400;" xml:space="preserve">
<style type="text/css">
	.st0{fill:#7A3B10;}
	.st1{fill:#FACB94;}
	.st2{fill:none;stroke:#492101;stroke-width:3.2351;stroke-linecap:round;stroke-linejoin:round;stroke-miterlimit:10;}
	.st3{fill:none;stroke:#492101;stroke-width:4.3135;stroke-miterlimit:10;}
	.st4{fill:none;stroke:#492101;stroke-width:3.2351;stroke-linecap:round;stroke-miterlimit:10;}
	.st5{fill:#7FC259;}
	.st6{fill:#63A04F;}
	.st7{fill:#A7673B;}
	.st8{fill:#F7E0CD;}
	.st9{fill:#9A5E33;}
	.st10{fill:#F5CCC4;}
	.st11{fill:#8A5E45;}
	.st12{fill:#A06135;}
	.st13{fill:#F1A698;}
	.st14{fill:#FACB94;stroke:#492101;stroke-width:2.9233;stroke-linecap:round;stroke-linejoin:round;stroke-miterlimit:10;}
	.st15{fill:#FACB94;stroke:#492101;stroke-width:3.2351;stroke-linecap:round;stroke-linejoin:round;stroke-miterlimit:10;}
	.st16{fill:none;stroke:#492101;stroke-width:2.9233;stroke-linecap:round;stroke-linejoin:round;stroke-miterlimit:10;}
</style>
<g id="Layer_2_1_">
	<path class="st0" d="M105.6,128.6c5.3,1.6,7.5,16.7,9.7,25.1c2.3,8.7,14.8,10.4,31.1-6.8s18.4-11.1,21.9-8.9
		c4.1,2.5,18.3,18.1,17.3,24s-8.7,1.3-9.7-1.3s-11-11.7-11-11.7s-0.3,2.9,5.4,8.1c3.7,3.3-6.3,11.1-10.7,3.5s-1.1-1.9-1.1-1.9
		s1.4,2.2,1.7,4.5c0.1,1.3-3.2,3.7-3.6,2.8c-1.8-3.7-1.9-2.4-2.3,1.6c-0.4,3.9-15.9,10.9-24,9.5c-8.1-1.5-25.9,12-40.7-19.9"/>
	<g>
		<path class="st1" d="M151.1,151.6c-8.8-2.2-2.8-6.1-0.1-9.2c9.3-11,13.8-6.5,17.3-4.3c4.1,2.5,19,18.6,18,24.5s-9.4,0.8-10.5-1.8
			c-1-2.6-11-11.7-11-11.7s-1.7,2.2,4.1,8.3c3.4,3.6-4.9,11-9.3,3.3c-4.4-7.6-1.1-1.9-1.1-1.9s0.8,2.3,1.7,4.5c0,0-2.9,4.9-3.6,2.8
			c-1.3-3.9-3.4-0.3-2.5-3.7c1.1-3.8-2-5.3-4-7.2"/>
	</g>
	<path class="st2" d="M105.6,128.6c5.3,1.6,7.5,16.7,9.7,25.1c2.3,8.7,14.8,10.4,31.1-6.8s18.4-11.1,21.9-8.9
		c4.1,2.5,19,19.5,18,25.4s-9.3-0.7-10.9-3.3c-3.4-5.7-10.5-11-10.5-11s-3.3,1.4,4.9,9c3.7,3.4-4.7,9-10.1,2.6
		c-2.5-2.9-1.2,0.4-1.2,0.4s-1.5-0.1,0,1.7c0.7,0.9,0.2,3.4-1.8,3.3c-1.2-0.1-2.2,0.6-2.3,1.6c-0.4,3.9-15.9,10.9-24,9.5
		c-8.1-1.5-25.9,12-40.7-19.9"/>
	<g>
		<path class="st1" d="M77.5,238.1c8.6-2.9,17.8-5.9,27.1-4.9c3.1,0.3,6.2,1.1,9.3,1c4.8-0.1,6.5-3.4,11-4.6c8.8-2.3,20.9,2.1,26,8
			c0.7,0.8,4.7,2.9,4.7,3.8c0,1-2.2,3.4-3,4.2c-4.2,4.2-11.1,2.6-18.1,3.2c-4.3,0.4-0.2,1.9-2.6,4.7c1.7,0.4-31.1,0-36.6-5
			c-1.2-1.1-7.4,2.1-9.1,1.4c-3.9-1.6-5.7-2.6-9.6-4.3c-2.5-1.1-2-4.8-3-6.8"/>
		<path class="st0" d="M100.9,213.1c-5.4,4.8-11.4,10.1-19.7,19.4c-1.9,2.1-4,4.4-6.2,6.5c-7.5,7-17.2,12.1-31.3,3.2
			c-4.8-3-3.8,2.5-13.9,7.9s-23.2,24.6-2.3,36.7c20.5,12,43.7-0.1,42.8-4.5c-2.6-13,9.7-22.5,10.1-10.7c0.3,8.2,2.1,16.2-5.4,22.7
			c-5.2,4.5-30.8,9.3-45.2,6.6c-14-2.6-24.4-17.8-26.5-30.3c-1.1-6.3,4.5-19.2,17.8-29.4s18-12.3,19.9-28.4s-2.9-40.3,5.3-54.7
			s25.7-33.6,41.4-36.8s38.2-1.2,30.7,9.7c-7.5,11-16.6,25.2-16.9,33.4c-0.2,7.5-1,14.6,6.1,15.3c7,0.6,8.4,1.7,15.8-2.3
			c7.4-4.1,17.3-0.5,19.3,7.6s2.9,27.6-6.6,35c-8.9,7-10.2,11.7-17,13.4c0,0-19.2,5.9-23.9,4.8c-4.7-1.1-5.8-2-9.5,0.8
			s-12.2,4.2-12.2,4.2"/>
		<path class="st3" d="M100.9,213.1c-5.4,4.8-11.4,10.1-19.7,19.4c-8.3,9.3-19.2,21.3-37.5,9.7c-4.8-3-3.8,2.5-13.9,7.9
			s-23.2,24.6-2.3,36.7c20.5,12,43.7-0.1,42.8-4.5c-2.6-13,9.7-22.5,10.1-10.7c0.3,8.2,2.1,16.2-5.4,22.7
			c-5.2,4.5-30.8,9.3-45.2,6.6c-14-2.6-24.4-17.8-26.5-30.3c-1.1-6.3,4.5-19.2,17.8-29.4s18-12.3,19.9-28.4s-2.9-40.3,5.3-54.7
			s25.7-33.6,41.4-36.8s38.2-1.2,30.7,9.7c-7.5,11-16.6,25.2-16.9,33.4c-0.2,7.5-1,14.6,6.1,15.3c7,0.6,8.4,1.7,15.8-2.3
			c7.4-4.1,17.3-0.5,19.3,7.6s2.9,27.6-6.6,35c-8.9,7-10.2,11.7-17,13.4"/>
		<path class="st3" d="M70.9,205.6c4.6-6,34.5-31.3,48.2-16s8.3,22.6,1.3,30.4c-4.8,5.4-12.2,9.7-16.3,11.8
			c-1.8,0.9-2.9,1.4-2.9,1.4s24.6,1.1,29.7,8.4c5.1,7.3,4.2,14.3-5.4,12.2s-33-4.6-37.9-4S71,242.7,71,242.7"/>
		<path class="st3" d="M128.4,229.3c10,3.2,34.2,9.9,25.2,16.3c-8.9,6.4-20.6,1.5-20.6,1.5"/>
		<path class="st4" d="M111.8,242.4c7.9,0.2,13.4,4.1,17.6,9.9"/>
		<path class="st4" d="M132.8,238.3c7.9,0.2,13.4,4.1,17.6,9.9"/>
	</g>
	<path class="st0" d="M83,140.5c5.3,1.6,14,13.6,16.2,22c2.3,8.7,8.1,26.5,24.4,9.2s18.4-11.1,21.9-8.9c4.1,2.5,14,18.4,13,24.3
		c-1,5.9-6.8,1.4-7.9-1.1c-1-2.6-6.6-12.3-6.6-12.3s1.9,3.5,3.5,8.3c1.6,4.7-4.1,9.5-8.5,1.9s-1.1-1.9-1.1-1.9s0.8,2.3,1.7,4.5
		c1.2,3.1-3,9.2-7.6-0.8c-1.7-3.7-1.4-1.4-1.8,2.5s-14.6,15.2-22.7,13.7s-19.2-4-34-35.9"/>
	<path class="st1" d="M128.3,176.4c-8.8-2.2-2.8-6.1-0.1-9.2c9.3-11,13.8-6.5,17.3-4.3c4.1,2.5,14,18.4,13,24.3
		c-1,5.9-6.8,1.4-7.9-1.1c-1-2.6-6.6-12.3-6.6-12.3s1.9,3.5,3.5,8.3c1.6,4.7-4.1,9.5-8.5,1.9s-1.1-1.9-1.1-1.9s0.8,2.3,1.7,4.5
		c1.2,3.1-3,9.2-7.6-0.8c-1.7-3.7-3,0.7-2-2.7c1.1-3.8-0.7-1.1-2.6-3"/>
	<path class="st2" d="M83,140.5c5.3,1.6,14,13.6,16.2,22c2.3,8.7,8.1,26.5,24.4,9.2s18.4-11.1,21.9-8.9c4.1,2.5,14,18.4,13,24.3
		c-1,5.9-6.8,1.4-7.9-1.1c-1-2.6-6.6-12.3-6.6-12.3s1.9,3.5,3.5,8.3c1.6,4.7-4.1,9.5-8.5,1.9s-1.1-1.9-1.1-1.9s0.8,2.3,1.7,4.5
		c1.2,3.1-3,9.2-7.6-0.8c-1.7-3.7-1.4-1.4-1.8,2.5s-14.6,15.2-22.7,13.7s-19.2-4-34-35.9"/>
	<path class="st0" d="M70.3,92.7c-4.4-3.2-12.1-7.4-18.9,4.2c-5.6,9.5,5,20.7,7.3,21.9c2.3,1.2,10.1,2.5,11.6-0.8
		c0.6-1.4,9.4,16.1,34.2,19.6c12.1,1.7,36.6-0.4,42.9-18.8s-4.7-16.1-6.2-19.4c-0.9-2,0.6-10.2,0.1-18.5c-0.4-5.8-1.8-11.6-5.7-15.5
		c-6.2-6.3-4.7-4.9-4.7-4.9s3-10.8-5.6-18.1c-2.4-2.1,1.9,6.3-5.4,11.1c-1.3,0.9-1-4.2-3.8-6.7c-2.7-2.6-4.2,8.9-17.3,8.5
		s-30.3,9.5-34.2,33.6"/>
	<g>
		<path class="st1" d="M138.8,73.7c-10.6-3.5-17.2,1.3-21,8.6c-8.5-10.3-22.7-9.5-29.9-1.8s-5.6,18.6,0,29.3c-5.6,8.9-5,15-1.1,21.2
			c0,0,5.4,3.9,9.7,4.9c4.3,1.1,32.3,4.9,38.9-3.3c6.6-8.2,12.4-7.3,14.2-26.6c3.1-9.9,3.4-11.1,2.4-15.7c-2-9-10.6-7.1-11-10.4
			S138.8,73.7,138.8,73.7z"/>
	</g>
	<ellipse transform="matrix(0.866 -0.5 0.5 0.866 -45.4018 44.7517)" class="st1" cx="60.8" cy="107.1" rx="8.2" ry="15"/>
	<path class="st2" d="M142.1,79.9c6.1,2.1,15.9,14.4,7.1,24.7"/>
	<path class="st2" d="M50.8,98.8c2.8-8.5,25.1-2.1,19.5,17.9"/>
	<path class="st2" d="M138.8,73.7c-10.6-3.5-17.2,1.3-21,8.6c-8.5-10.3-22.7-9.5-29.9-1.8s-5.6,18.6,0,29.3c-5.6,8.9-5,15-1.1,21.2"
		/>
	<path class="st2" d="M70.3,92.7c-4.4-3.2-12.1-7.4-18.9,4.2c-5.6,9.5,5,20.7,7.3,21.9c2.3,1.2,10.1,2.5,11.6-0.8
		c0.6-1.4,9.4,16.1,34.2,19.6c12.1,1.7,36.6-0.4,42.9-18.8s-4.7-16.1-6.2-19.4c-0.9-2,0.6-10.2,0.1-18.5c-0.4-5.8-1.8-11.6-5.7-15.5
		c-6.2-6.3-4.7-4.9-4.7-4.9s3-10.8-5.6-18.1c-2.4-2.1,1.9,6.3-5.4,11.1c-1.3,0.9-1-4.2-3.8-6.7c-2.7-2.6-4.2,8.9-17.3,8.5
		s-30.3,9.5-34.2,33.6"/>
	<g>
		<path class="st5" d="M205.4,188.3"/>
		<path class="st5" d="M207,188.2"/>
		<path class="st6" d="M210.5,187.9"/>
		<path class="st6" d="M210.5,187.9"/>
		<path class="st7" d="M275.3,176.5c0,0,102.3-6.5,128.4,33.2c16.9,25.8-27.5,48.8-43.5,24.2c-14-21.5,11.3-27.9,11.2-12.5
			c-0.1,17.5,24.8,5.4,13.2-6.3c-13.6-13.8-29.9-12.9-42.3-15.4c-16-3.2-42-5-68.8-1.6L275.3,176.5z"/>
		<path class="st8" d="M193.5,132.7c0,0-8.7-7.5-11.7-12.6c-3-5.1-8.7,0-5.9,4.3c2.8,4.2,2.8,4.2,2.8,4.2s-9.8-4.3-13.9-0.4
			c-5.4,5.1-1,19,8.9,18.6c10-0.4,16-1.5,16-1.5L193.5,132.7z"/>
		<path class="st7" d="M274.5,198.6c0,0-22.2,16-23.1,20.6c-0.9,4.6-4.5,20.2-5.9,24.6c-1.4,4.4-19.9,5.6-20.4,1.2
			c-0.6-4.5-2.5-30.8,0.5-36.3c3-5.5,17.8-15.1,22.5-22.8C252,179.5,274.5,198.6,274.5,198.6z"/>
		<path class="st7" d="M276.9,203.4c18.1-1.8,26.7-15.5,29.4-20.6c3.8-7,8.2-23.4,4.5-36.7c-9.6-34.9-14.4-36.9-17.6-44
			c-4.3-9.3-8.7-9.4-18.3-8.4c-16.8,1.7-42.4,15.8-31.8,44.2c5.3,14.3-2.3,39.9,6.9,51c5.5,6.6,16.8,14.9,24,14.7
			C275,203.5,276,203.5,276.9,203.4z"/>
		<path class="st8" d="M348.5,153.3c0,0,5.9,9.9,7.2,15.7c1.3,5.8,8.3,2.7,7-2.2c-1.3-4.9-1.3-4.9-1.3-4.9s7.9,7.1,13.1,4.7
			c6.7-3.1,7-17.7-2.6-20.4c-9.6-2.7-15.7-3.7-15.7-3.7L348.5,153.3z"/>
		<path class="st7" d="M305.2,144.4c7.1-1.1,16.3-1.2,23.4,3.3c13.8,8.7,20.5,19.8,29.4,11.2c14.5-13.8,3.1-26.1-24.8-32.6
			c-12.5-2.9-25.1-4.2-33.4-4L305.2,144.4z"/>
		<path class="st7" d="M243,128.5c-6.5,3.2-17.3,9.7-25.4,7.5c-15.8-4.2-25.5-12.7-31.5-1.9c-9.7,17.6,4.9,25.9,33.5,23.6
			c12.7-1,23.4-3.6,31.2-6.3L243,128.5z"/>
		<path class="st9" d="M207.4,56.4c20.4,1.6,20,25.5,20,25.5s2.6,10.6-4.3,16.6c-6.8,6-35.6,16.7-47.4-9
			C163.9,63.6,187,54.7,207.4,56.4z"/>
		<path class="st10" d="M207.7,98c7-1,12.3-4,13.8-5.3c3.4-3,2.1-9.6,2.1-9.7l-0.2-0.9l0-0.8c0-0.3-0.1-5.1-2-9.8
			c-2.3-5.5-6-8.2-11.6-8.7c-3.7-0.3-7.5-0.2-10.9,0.3c-7.6,1.1-13.2,4-15.4,8c-1.9,3.6-1.5,8.6,1.4,14.9
			C189.4,95.5,197,99.6,207.7,98C207.7,98,207.7,98,207.7,98z"/>
		<path class="st9" d="M280.2,31.7c-14.4,14.6,1.5,32.3,1.5,32.3s5,9.7,14.1,9.7c9.1,0,37.9-10.7,30-37.9
			C317.8,8.8,294.6,17.2,280.2,31.7z"/>
		<path class="st10" d="M307.2,63.5c-5.9,3.8-12,5-14,5c-4.6,0-7.9-5.9-7.9-6l-0.4-0.8l-0.6-0.6c-0.2-0.2-3.3-3.9-4.9-8.7
			c-1.9-5.6-0.9-10.1,3.1-14.2c2.6-2.6,5.5-5,8.4-6.9c6.5-4.1,12.6-5.6,16.8-4c3.8,1.4,6.7,5.5,8.6,12.2
			C319.4,49.6,316.3,57.7,307.2,63.5C307.2,63.5,307.2,63.5,307.2,63.5z"/>
		<path class="st8" d="M201.1,73.2c-1.9-40,89.4-62.8,106.1-18c12.6,33.9-5.9,67.4-37.5,73.9C236,136,203.1,115.3,201.1,73.2z"/>
		<path class="st9" d="M201.1,73.2c-1.9-40,89.4-62.8,106.1-18c7.4,19.7,4.2,39.3-6,53.5c-0.1,0-0.1,0-0.1,0.1
			c5-14.7,14.5-23.9,1.4-23.4c-13.1,0.5-12.1,0.1-8.1-3.9c12.6-12.4,6.4-39.9-15-40.8c-23.1-1-23.2,19.9-28.9,22.5
			c-7.4,3.4-12.5-13.1-31.5-5.7c-22.4,8.8-4.2,45.4,10.9,46.8c10,0.9-22.5,5.8,4.5,20.5c0,0,4.2,2.6,4.1,2.6
			C218.1,120.5,202.4,101.8,201.1,73.2z"/>
		<path class="st11" d="M260.3,102c-0.6-1.8,3.9-3.8,7.9-3.9c4-0.2,0.6,5.4-1.8,6.6C264,105.9,260.9,103.8,260.3,102z"/>
		<path class="st11" d="M279,80.1c2.9,0.5,4,5.5,1.8,6.9c-2.2,1.4-3,1.3-4.8-1.2C274.2,83.4,276.1,79.6,279,80.1z"/>
		<path class="st11" d="M241.6,93.4c2.9,0.5,4,5.5,1.8,6.9c-2.2,1.4-3,1.3-4.8-1.2C236.8,96.6,238.7,92.8,241.6,93.4z"/>
		<path class="st9" d="M216.1,50.5c-4.5,0-3.1-7.4-0.1-14.6c3.8-9.5,13-17.8,17.3-17.4c4.1,0.3-6.3,11-5.9,11.1
			c-0.1,0,6.2-4.8,11.4-7.4c5-2.8,10.8-4.1,9.7-2.4c-2.3,3.3-9.3,9.9-9.1,10c-0.1,0,5.3-2.7,11.3-3.6c5.9-1.2,12.3-0.7,11.4,0.6
			c-1.1,2.6-6.8-0.9-13.8,10.6c-3.3,5.8-8.8,6.6-15,7.6C227.5,45.8,218.5,50.5,216.1,50.5z"/>
		<path class="st10" d="M286.3,94.6c0.1,4.4,12.8,1.8,12.5-2.3C298.5,87.1,286.2,89.2,286.3,94.6z"/>
		<path class="st10" d="M232.9,114.9c0.7,4.4,13.2-0.2,12.4-4.3C244.1,105.5,231.9,109.6,232.9,114.9z"/>
		<path class="st12" d="M268.1,109.5c6.9-2.3,14.9-9.1,14.9-9.1s4.1,16.2-12.2,21.1c-15.8,4.7-19.4-9.7-19.4-9.7
			S261.2,111.7,268.1,109.5z"/>
		<path class="st13" d="M272.9,112.5c3.1-0.9,6.5-1.4,9.6-1.6c-1.4,4.2-4.6,8.5-11.7,10.6c-5.2,1.6-9.1,1-12-0.4
			C263.2,117.3,268.6,113.8,272.9,112.5z"/>
		<path class="st7" d="M276.7,201.5c0,0,26.7,12.5,27.4,17.1c0.7,4.6,3.4,20.9,4.6,25.3c1.2,4.5,22,6.4,19.9,2.4
			c-4.9-9.8,0.9-25-1.3-37.2c-1.1-6.1-17.9-24.2-22.3-32.1C301.4,170.4,276.7,201.5,276.7,201.5z"/>
		<path class="st8" d="M306.7,254.3c-3.9-5.2-0.3-14.5,8.1-20.8c8.4-6.3,18.3-7.1,22.2-1.9c3.9,5.2,0.3,14.5-8.1,20.8
			C320.6,258.6,310.6,259.5,306.7,254.3z"/>
		<path class="st8" d="M214.7,250.5c1.3,5.9,10.1,9,19.6,6.8c9.5-2.2,16.1-8.7,14.8-14.6c-1.3-5.9-10.1-9-19.6-6.8
			C220,238.1,213.3,244.6,214.7,250.5z"/>
	</g>
</g>
<g id="Layer_3_copy">
	<g>
		<path class="st0" d="M248.3,127.4c-12.3,4.6-20.9,15.6-51.9,5c-5.8-2-11.7-9.3-15.9-12.5c-4.2-3.2-10.7,0.9-2.5,7.5
			c0,0-14.6-6.8-15.5-3.9s2.8,5.4,10.1,8.9c0,0-16.6-2.8-4.2,5.6c0,0-14.5,1.1-2.6,5.3c11.9,4.2,12.8,4.7,17.4,3.5
			c0,0,9.5,10.4,61.4,6.9c0,0-2.3,28.6,3.5,32.2c0,0-26.4,21.8-24.1,30.3s2.4,20.4,0.5,21.4s-13.1,7.5-13.9,10.6
			c-0.8,3.1-4,10,9.7,8.2c13.6-1.8,25.8-7.2,28.1-13.5c2.4-6.3-3.9-12.6,3.2-23.7s10.1-18.1,19.3-17.2c9.2,0.9,20.9,2.3,27.4,10.9
			c6.5,8.7,10.4,25.6,9,29.4c-1.5,3.8-0.1,10.1,5.2,11.8c5.3,1.7,21.2-2.3,26.3-6c5.1-3.7,10.5-14.1,0-17s-11.5-1.9-11.5-1.9
			s-2.4-22.4-14.1-32.4c0,0,79,2.6,73.7,28.5c0,0-9.3,11.6-14.8-0.3c-5.5-11.9-15.1-19.3-15.1,1.7c-0.1,20.9,24.3,16.2,24.6,17.6
			c0.3,1.4,40.4-7.4,21.7-35.7s-80.5-30.3-88-29.9c0,0,6.8-23.4-3.8-35.5c0,0,28.2-4.7,41.8,18.6c11.2,19.2,11,9.3,6.3-0.1
			c0,0,11.7,14.1,12.1,9.7c0.4-4.4-7.4-13.3-7.4-13.3s22.2,17.8,3.9-3.6c12.8,10.5,16.6,6.6,2.9-3.9c-12.2-10.3-13.6-14.5-30.3-20.4
			c-16.8-5.9-31.7-4.6-37.1-8c-5.3-3.4,0.9-6.6-7.1-9.9C284.3,132.6,248.1,130.8,248.3,127.4z"/>
		<path class="st0" d="M216.5,96C202,95.3,168,45.3,213,50.6c0,0,3.5-9.3,9-8.5c-1.5-4,0.3-20.8,18.2-23.8c8.7-0.5-5.3,9.6-5.3,9.6
			s11.8-8.2,18.3-6.5c1.7,1.9-6.6,8-6.6,8s9.9-4.2,18.1,0.3c1.1,2.9-7,2.6-7,2.6s18,1.2,22.1,4.1c0,0,48.7-40.4,24.7,39.7
			C318.2,118.8,246.5,160.7,216.5,96z"/>
		<path class="st14" d="M242.1,122.7c0,0-17.4-8.6-5.9-18.8c-25.5-11.9-14.5-53.4,12-40.8c10.4,4.9,8.7,8.1,10.4-3.5
			c3.7-24.6,50.1-10.5,30.8,30.2c8.5,5.5,13.8,7.6,8,18.7C287.1,128,258.7,134,242.1,122.7z"/>
		<path class="st15" d="M286.3,42c0,0,22.4-9.7,14.3,18.9C296.1,48.4,286.3,42,286.3,42z"/>
		<path class="st15" d="M213.2,60.9c-6.7-1-22.4,4.5,0,23.5C210.5,73.8,213.2,60.9,213.2,60.9z"/>
	</g>
	<g>
		<path class="st16" d="M248.3,127.4c-12.3,4.6-20.9,15.6-51.9,5c-5.8-2-11.7-9.3-15.9-12.5c-4.2-3.2-10.7,0.9-2.5,7.5
			c0,0-14.6-6.8-15.5-3.9s2.8,5.4,10.1,8.9c0,0-16.6-2.8-4.2,5.6c0,0-14.5,1.1-2.6,5.3c11.9,4.2,12.8,4.7,17.4,3.5
			c0,0,9.5,10.4,61.4,6.9c0,0-2.3,28.6,3.5,32.2c0,0-26.4,21.8-24.1,30.3s2.4,20.4,0.5,21.4s-13.1,7.5-13.9,10.6
			c-0.8,3.1-4,10,9.7,8.2c13.6-1.8,25.8-7.2,28.1-13.5c2.4-6.3-3.9-12.6,3.2-23.7s10.1-18.1,19.3-17.2c9.2,0.9,20.9,2.3,27.4,10.9
			c6.5,8.7,10.4,25.6,9,29.4c-1.5,3.8-0.1,10.1,5.2,11.8c5.3,1.7,21.2-2.3,26.3-6c5.1-3.7,10.5-14.1,0-17s-11.5-1.9-11.5-1.9
			s-2.4-22.4-14.1-32.4c0,0,79,2.6,73.7,28.5c0,0-9.3,11.6-14.8-0.3c-5.5-11.9-15.1-19.3-15.1,1.7c-0.1,20.9,24.3,16.2,24.6,17.6
			c0.3,1.4,40.4-7.4,21.7-35.7s-80.5-30.3-88-29.9c0,0,6.8-23.4-3.8-35.5c0,0,28.2-4.7,41.8,18.6c11.2,19.2,11,9.3,6.3-0.1
			c0,0,11.7,14.1,12.1,9.7c0.4-4.4-7.4-13.3-7.4-13.3s22.2,17.8,3.9-3.6c12.8,10.5,16.6,6.6,2.9-3.9c-12.2-10.3-13.6-14.5-30.3-20.4
			c-16.8-5.9-31.7-4.6-37.1-8c-5.3-3.4,0.9-6.6-7.1-9.9C284.3,132.6,248.1,130.8,248.3,127.4z"/>
		<path class="st16" d="M216.5,96C202,95.3,168,45.3,213,50.6c0,0,3.5-9.3,9-8.5c-1.5-4,0.3-20.8,18.2-23.8c8.7-0.5-5.3,9.6-5.3,9.6
			s11.8-8.2,18.3-6.5c1.7,1.9-6.6,8-6.6,8s9.9-4.2,18.1,0.3c1.1,2.9-7,2.6-7,2.6s18,1.2,22.1,4.1c0,0,48.7-40.4,24.7,39.7
			C318.2,118.8,246.5,160.7,216.5,96z"/>
		<path class="st16" d="M242.1,122.7c0,0-17.4-8.6-5.9-18.8c-25.5-11.9-14.5-53.4,12-40.8c10.4,4.9,8.7,8.1,10.4-3.5
			c3.7-24.6,50.1-10.5,30.8,30.2c8.5,5.5,13.8,7.6,8,18.7C287.1,128,258.7,134,242.1,122.7z"/>
		<path class="st16" d="M286.3,42c0,0,22.4-9.7,14.3,18.9C296.1,48.4,286.3,42,286.3,42z"/>
		<path class="st16" d="M213.2,60.9c-6.7-1-22.4,4.5,0,23.5C210.5,73.8,213.2,60.9,213.2,60.9z"/>
	</g>
</g>
</svg>
